<?xml version="1.0" standalone="no"?>
<!DOCTYPE svg PUBLIC "-//W3C//DTD SVG 20010904//EN"
 "http://www.w3.org/TR/2001/REC-SVG-20010904/DTD/svg10.dtd">
<svg version="1.0" xmlns="http://www.w3.org/2000/svg"
 width="8859.000000pt" height="3964.000000pt" viewBox="0 0 8859.000000 3964.000000"
 preserveAspectRatio="xMidYMid meet">

<g transform="translate(0.000000,3964.000000) scale(0.100000,-0.100000)"
fill="#000000" stroke="none">
<path d="M930 31538 c0 -7159 2 -7676 30 -8163 125 -2173 645 -3998 1583
-5555 377 -625 787 -1151 1297 -1661 702 -704 1423 -1219 2330 -1668 1235
-611 2670 -983 4265 -1106 730 -56 1600 -59 2340 -9 1662 112 3159 485 4420
1103 694 340 1277 723 1859 1221 207 176 657 621 831 820 752 863 1327 1837
1781 3019 463 1205 741 2616 814 4136 6 127 15 293 19 370 5 77 9 -2300 10
-5282 l1 -5423 2195 0 2195 0 0 7318 c0 7122 2 7521 30 7932 160 2285 928
3955 2320 5045 807 631 1802 1026 2960 1174 810 104 1732 87 2515 -45 1015
-171 1878 -530 2615 -1085 388 -292 760 -662 1036 -1029 584 -777 966 -1732
1163 -2907 82 -484 124 -949 141 -1548 6 -207 10 -3173 10 -7597 l0 -7258
2195 0 2195 0 0 -982 c0 -541 5 -1113 10 -1273 74 -2124 467 -3812 1251 -5366
358 -710 772 -1327 1284 -1916 261 -300 700 -722 1032 -990 1517 -1230 3458
-1951 5808 -2158 449 -39 714 -49 1335 -49 605 -1 804 6 1250 40 2276 173
4201 830 5685 1939 558 417 1087 925 1522 1462 1055 1299 1799 2989 2142 4858
154 837 229 1623 251 2617 6 266 10 5639 10 13931 l0 13497 -2200 0 -2200 0 0
-7407 c0 -7185 -2 -7598 -30 -8013 -110 -1588 -539 -2903 -1266 -3875 -207
-278 -508 -600 -769 -824 -663 -569 -1437 -964 -2332 -1190 -588 -148 -1127
-216 -1828 -228 -1819 -31 -3284 436 -4412 1405 -1276 1097 -1973 2719 -2123
4942 -27 413 -30 1037 -30 7998 l0 7192 -2195 0 -2195 0 -2 -5432 c0 -2988 -5
-5334 -9 -5213 -59 1675 -335 3161 -825 4437 -451 1173 -1040 2173 -1775 3013
-157 180 -502 529 -694 702 -1231 1114 -2792 1858 -4670 2227 -1661 326 -3621
352 -5310 70 -1991 -332 -3640 -1074 -4975 -2240 -172 -150 -622 -600 -770
-769 -826 -948 -1451 -2063 -1885 -3360 -370 -1105 -582 -2340 -644 -3745 -4
-96 -9 2184 -9 5068 l-2 5242 -2200 0 -2200 0 -3 -7562 c-2 -5778 -6 -7600
-15 -7718 -62 -792 -137 -1292 -277 -1842 -213 -840 -566 -1601 -1017 -2197
-203 -266 -500 -583 -753 -800 -662 -568 -1437 -964 -2332 -1190 -588 -148
-1127 -216 -1828 -228 -2047 -35 -3664 568 -4821 1797 -866 921 -1401 2135
-1624 3690 -44 309 -74 611 -102 1050 -8 127 -12 2229 -15 7588 l-4 7412
-2194 0 -2195 0 0 -7412z m43185 -8238 c110 -1808 488 -3338 1164 -4715 460
-938 983 -1687 1656 -2374 693 -707 1440 -1248 2355 -1704 1244 -622 2682
-997 4300 -1122 692 -53 1545 -59 2255 -15 2057 128 3870 659 5300 1551 l110
69 3 -1757 c3 -1768 -1 -2086 -33 -2508 -182 -2373 -1035 -4034 -2597 -5059
-1046 -686 -2380 -1024 -3908 -992 -1555 32 -2798 416 -3815 1178 -389 292
-798 702 -1086 1088 -769 1032 -1204 2379 -1319 4080 -20 303 -30 816 -30
1592 l0 788 -2192 2 -2193 3 -1 5255 c-1 2890 3 5174 7 5075 5 -99 15 -295 24
-435z"/>
<path d="M7160 12239 c-269 -31 -529 -129 -747 -282 -113 -80 -291 -257 -371
-372 -74 -105 -186 -325 -225 -441 -158 -478 -101 -1027 151 -1449 217 -364
608 -645 1013 -729 302 -62 634 -44 918 51 234 78 433 202 661 412 l65 60
-120 120 -120 120 -85 -75 c-283 -249 -526 -360 -837 -383 -378 -29 -696 86
-959 344 -192 189 -301 388 -366 665 -25 108 -35 388 -19 512 71 536 430 954
930 1085 117 31 356 42 494 24 246 -33 477 -145 720 -349 l95 -80 119 129 c65
71 119 133 121 138 4 11 -126 124 -222 195 -243 178 -504 276 -821 306 -126
12 -286 11 -395 -1z"/>
<path d="M11506 12239 c-253 -27 -495 -115 -711 -258 -362 -240 -619 -645
-695 -1096 -28 -163 -30 -416 -6 -577 77 -505 373 -940 801 -1178 525 -290
1213 -265 1713 63 102 66 247 184 320 260 l43 44 -122 116 -123 116 -60 -57
c-83 -76 -235 -188 -332 -244 -169 -98 -319 -142 -532 -157 -224 -17 -434 20
-618 108 -370 177 -615 498 -706 924 -29 139 -31 416 -4 557 94 481 409 854
839 994 232 76 536 76 782 1 147 -45 343 -160 515 -304 47 -39 88 -71 91 -71
4 0 61 58 128 129 l122 129 -51 48 c-237 221 -493 359 -790 422 -177 38 -418
51 -604 31z"/>
<path d="M15865 12239 c-368 -38 -690 -193 -956 -458 -239 -239 -384 -510
-456 -850 -24 -113 -27 -148 -27 -336 -1 -219 5 -278 50 -455 120 -483 458
-883 914 -1080 211 -92 382 -124 660 -124 279 0 451 32 662 125 494 216 839
654 950 1201 20 98 23 142 23 338 -1 205 -3 236 -28 351 -108 510 -405 903
-854 1128 -277 139 -603 195 -938 160z m398 -344 c123 -21 238 -60 351 -118
363 -186 605 -522 682 -948 22 -126 22 -362 0 -488 -108 -603 -553 -1024
-1129 -1070 -375 -31 -723 97 -988 362 -171 170 -280 369 -346 635 -25 99 -27
123 -28 317 0 166 4 228 18 295 57 264 172 483 351 669 176 181 400 299 655
345 104 19 328 20 434 1z"/>
<path d="M41080 12239 c-461 -52 -870 -301 -1126 -685 -384 -576 -386 -1375
-5 -1954 77 -118 279 -318 401 -399 330 -217 721 -305 1161 -261 343 35 698
181 986 406 l83 65 0 640 0 639 -660 0 -660 0 0 -160 0 -160 490 0 490 0 0
-393 0 -394 -22 -20 c-82 -73 -306 -191 -463 -241 -152 -50 -271 -67 -450 -67
-178 1 -265 13 -405 57 -415 131 -703 448 -813 898 -89 361 -49 723 116 1044
146 286 412 516 699 604 247 77 575 69 838 -18 158 -53 356 -167 455 -261 17
-16 34 -29 37 -29 4 0 60 61 124 136 97 113 115 139 103 148 -8 6 -42 32 -74
57 -276 214 -538 315 -900 349 -127 12 -297 11 -405 -1z"/>
<path d="M2556 12183 c-19 -39 -1315 -2902 -1397 -3085 l-48 -108 187 0 187 0
187 418 187 417 874 3 874 2 185 -417 185 -418 197 -3 c108 -1 196 -1 196 0 0
2 -328 728 -729 1613 l-728 1610 -170 3 -169 2 -18 -37z m548 -1219 c196 -441
356 -804 356 -808 0 -3 -326 -6 -725 -6 -399 0 -725 3 -725 8 0 19 725 1621
731 1615 3 -5 167 -368 363 -809z"/>
<path d="M19460 11211 c0 -978 3 -1100 36 -1266 104 -525 456 -882 966 -980
206 -39 496 -37 693 5 544 118 881 503 960 1096 12 89 15 295 15 1117 l0 1007
-180 0 -180 0 0 -988 c0 -1011 -2 -1077 -40 -1240 -84 -357 -315 -585 -675
-668 -100 -24 -373 -26 -480 -5 -181 36 -333 111 -451 224 -171 162 -267 386
-293 684 -7 71 -11 491 -11 1056 l0 937 -180 0 -180 0 0 -979z"/>
<path d="M24040 10590 l0 -1600 180 0 180 0 2 1307 3 1307 1029 -1307 1029
-1307 149 0 148 0 0 1600 0 1600 -180 0 -180 0 -2 -1276 -3 -1277 -1003 1277
-1004 1276 -174 0 -174 0 0 -1600z"/>
<path d="M28490 12025 l0 -165 538 -2 537 -3 3 -1432 2 -1433 180 0 180 0 0
1435 0 1435 540 0 540 0 0 165 0 165 -1260 0 -1260 0 0 -165z"/>
<path d="M32780 10590 l0 -1600 180 0 180 0 0 1600 0 1600 -180 0 -180 0 0
-1600z"/>
<path d="M35130 10590 l0 -1600 175 0 175 0 0 1306 c0 819 4 1304 9 1302 6 -1
471 -588 1034 -1303 l1023 -1300 147 -3 147 -3 0 1601 0 1600 -175 0 -175 0
-2 -1278 -3 -1279 -1005 1279 -1005 1278 -172 0 -173 0 0 -1600z"/>
</g>
</svg>
