<svg width="48" height="48" viewBox="0 0 48 48" fill="none" xmlns="http://www.w3.org/2000/svg">
  <g transform="translate(0, 5.5) scale(0.1538)">
    <path d="M311.747 209.996V150.004L259.801 120L207.837 150.004V209.996L259.801 240L311.747 209.996Z" fill="#02BAFF"/>
    <path d="M311.747 90.0128V30.0043L259.801 0L207.837 30.0043V90.0128L259.801 120L311.747 90.0128Z" fill="#017FF8"/>
    <path d="M207.837 150.004L259.801 120L207.837 90.0131L155.874 60.0088L103.91 90.0131L51.9636 120L103.91 150.004L155.874 180.009L207.837 150.004Z" fill="#1C21BD"/>
    <path d="M103.91 209.996V150.004L51.9637 120L0 150.004V209.996L51.9637 240L103.91 209.996Z" fill="#017FF8"/>
    <path d="M103.91 90.0128V30.0043L51.9637 0L0 30.0043V90.0128L51.9637 120L103.91 90.0128Z" fill="#02BAFF"/>
  </g>
</svg>
